<svg xmlns="http://www.w3.org/2000/svg" viewBox="0 0 1450.96 876.36"><defs><style>.cls-1,.cls-15,.cls-3{fill:#036;}.cls-1,.cls-15,.cls-2{stroke:#fff;stroke-width:10px;}.cls-1,.cls-15,.cls-2,.cls-3{stroke-linecap:round;stroke-linejoin:round;}.cls-1{opacity:0.9;}.cls-12,.cls-13,.cls-2,.cls-7,.cls-8{fill:none;}.cls-3{stroke:#036;}.cls-14,.cls-3,.cls-6,.cls-8{stroke-width:3px;}.cls-4{font-size:34.02px;letter-spacing:-0.03em;}.cls-11,.cls-14,.cls-16,.cls-17,.cls-18,.cls-4{fill:#fff;}.cls-16,.cls-17,.cls-18,.cls-4{font-family:Courier;}.cls-5{fill:#1d1d1b;}.cls-6{fill:#f9cbb4;}.cls-10,.cls-13,.cls-14,.cls-6,.cls-8{stroke:#1d1d1b;}.cls-10,.cls-12,.cls-13,.cls-14,.cls-6,.cls-8{stroke-miterlimit:10;}.cls-9{fill:#6a3e31;}.cls-12{stroke:#021e1f;}.cls-16{font-size:67.39px;letter-spacing:-0.03em;}.cls-17{font-size:102.47px;letter-spacing:-0.02em;}.cls-18{font-size:69.56px;letter-spacing:-0.03em;}</style></defs><g id="Ebene_2" data-name="Ebene 2"><path class="cls-1" d="M651.23,754.36c272,148.14,674.51,3.08,679.85-88.22.5-8.53-3-10.27-3.76-19.68-8.11-103.13,369.37-163.69,375.42-249.69C1714.1,235.26,384.31-117.46,269.8,126.62c-28.69,61.14,22.88,151.63,112.88,309.54C459.67,571.27,524.76,685.48,651.23,754.36Z" transform="translate(-256.85 -38.1)"/><line class="cls-2" x1="1008.83" y1="262.07" x2="1083.22" y2="262.07"/><path class="cls-3" d="M189.91-25.1" transform="translate(-256.85 -38.1)"/><line class="cls-2" x1="807.67" y1="336.61" x2="1008.83" y2="336.61"/><line class="cls-2" x1="807.67" y1="224.8" x2="1031.29" y2="224.8"/><text class="cls-4" transform="matrix(0.91, -0.42, 0.42, 0.91, 380.53, 201.72)">10101010<tspan x="0" y="40.82">10100101</tspan><tspan x="0" y="81.65">10101010</tspan><tspan x="0" y="122.47">10101010</tspan></text><path class="cls-5" d="M720.59,435s-1.7,22.59,0-118S837.48,148.68,861.2,141.91s77.36-6.78,79.06-3.39,33.32,2.26,81.88,41.79c44.92,36.56,53.12,51.87,54.1,54a4.91,4.91,0,0,0,.28.5c2,3,21.29,32.13,21.29,51.54v87.87c0,4.65-6.82,5.08-7.4.46l-3.87-30.92a2.7,2.7,0,0,0-.07-.41c-1.21-5-24.85-100.74-48-95.24-23.72,5.65-85.84-44.61-120.85,0C905.4,263.7,897,266.51,891.3,263.56c-8.21-4.24-10.92-20.34-11.72-27.39a3.71,3.71,0,0,0-3.77-3.28c-20,.45-119.37,3.68-107.36,23.09a3.74,3.74,0,0,1-.46,4.58c-7.68,7.91-31.66,33.81-25.94,42.85C748.82,314.14,720.59,427.65,720.59,435Z" transform="translate(-256.85 -38.1)"/><path class="cls-6" d="M714.82,430.11c-8.22.92-24,5.32-4.06,26.16a3.73,3.73,0,0,1,.9,3.56l-10.45,37.64a3.74,3.74,0,0,1-.27.7c-1.53,3-12.89,27.51,14.11,55,28.8,29.36,24.85,9.6,24.85,9.6l11.22,70.54a3.55,3.55,0,0,0,.25.86c2.07,4.88,22.7,51.2,77.19,91.8,55.05,41,132.29,16,139,13.72a3.84,3.84,0,0,0,.86-.43c6.51-4.37,91.59-61.61,90-69.76,0,0,31.33-86.15,27-106.24a3.7,3.7,0,0,1,2.41-4.31c8-2.71,25.93-12.52,35-47,10.94-41.67-3.11-75.2-5.35-80.16a3.72,3.72,0,0,1-.33-1.32c-.2-4-1.92-23.4-15.51-8.57a3.72,3.72,0,0,1-6.45-2L1085,338.63a3.7,3.7,0,0,0-.09-.48c-1.45-5.53-28.7-108.07-47.94-95.2-19.76,13.22-79.62-49.37-120.84,0-39.08,46.79-34.52-18.68-37.79-16.29a4.32,4.32,0,0,1-2.59,1c-16.23-.24-126.68-1-109.24,22.92a3.76,3.76,0,0,1-.4,5c-8.8,8.3-36.09,35.39-25.61,42.74,11.33,7.94-22,108.29-22.33,128.21A3.72,3.72,0,0,1,714.82,430.11Z" transform="translate(-256.85 -38.1)"/><path class="cls-5" d="M867.06,406a3.71,3.71,0,0,0,3.85-2.51c1.63-4.8,4.1-14.68-1-19.83-6.8-6.8-140.83-9.47-127.71,9.85a3.7,3.7,0,0,0,2.73,1.58Z" transform="translate(-256.85 -38.1)"/><path class="cls-5" d="M951.71,406a3.71,3.71,0,0,1-3.85-2.51c-1.64-4.8-4.1-14.68,1-19.83,6.8-6.8,140.83-9.47,127.71,9.85a3.7,3.7,0,0,1-2.73,1.58Z" transform="translate(-256.85 -38.1)"/><path class="cls-7" d="M778.75,453.86c-10,10,73.27,5.23,78.5,0S810.52,422.1,778.75,453.86Z" transform="translate(-256.85 -38.1)"/><path class="cls-8" d="M857.11,450.43c-6.37-21.1-71.65-19.89-77.88.25a3.71,3.71,0,0,0,2,4.42c5.58,2.63,20,8.49,36.56,7.61a136.52,136.52,0,0,0,37-7.77A3.69,3.69,0,0,0,857.11,450.43Z" transform="translate(-256.85 -38.1)"/><path class="cls-9" d="M835.68,438.21a84.3,84.3,0,0,0-30.75-.66,3.72,3.72,0,0,0-3,4.42c3.74,18.38,34,25.94,34.62-2.9C836.53,438.78,835.68,438.21,835.68,438.21Z" transform="translate(-256.85 -38.1)"/><ellipse class="cls-10" cx="563.4" cy="405.21" rx="7.25" ry="6.69"/><path class="cls-11" d="M802.06,441.8a3.7,3.7,0,0,0-4.7-2.91c-6.29,1.83-17.21,6.12-17.21,13.82,0,1.83,28.71,16.85,72.54,1.3a3.7,3.7,0,0,0,1.92-5.47c-2-3.17-6.65-7.45-17.14-10.3h-.78c0,18-11.56,19.9-13.35,20.08a3.42,3.42,0,0,1-.45,0C820.83,458.28,804.71,457.35,802.06,441.8Z" transform="translate(-256.85 -38.1)"/><path class="cls-8" d="M968.52,445.87c6.37-21.11,71.65-19.9,77.88.25a3.7,3.7,0,0,1-2,4.41c-5.58,2.63-20,8.5-36.56,7.62a136.44,136.44,0,0,1-37-7.78A3.68,3.68,0,0,1,968.52,445.87Z" transform="translate(-256.85 -38.1)"/><path class="cls-9" d="M990,433.64a84.47,84.47,0,0,1,30.75-.65,3.71,3.71,0,0,1,3,4.41c-3.74,18.39-34,26-34.62-2.9C989.1,434.22,990,433.64,990,433.64Z" transform="translate(-256.85 -38.1)"/><ellipse class="cls-10" cx="748.53" cy="400.65" rx="7.25" ry="6.69"/><path class="cls-11" d="M1023.57,437.24a3.71,3.71,0,0,1,4.7-2.92c6.29,1.84,17.21,6.13,17.21,13.82,0,1.84-28.71,16.86-72.54,1.3A3.7,3.7,0,0,1,971,444c2-3.16,6.65-7.45,17.14-10.3h.78c0,18,11.56,19.9,13.35,20.08a3.46,3.46,0,0,0,.45,0C1004.8,453.71,1020.92,452.78,1023.57,437.24Z" transform="translate(-256.85 -38.1)"/><path class="cls-12" d="M848,638.92" transform="translate(-256.85 -38.1)"/><path class="cls-13" d="M997,604.45c5.48-3.89,19.14,14.69,1.79,29.1" transform="translate(-256.85 -38.1)"/><path class="cls-14" d="M820.94,628.44c11.14,36,154.89,23.54,171.89-6.13a3.73,3.73,0,0,0-3.36-5.6l-165.12,7A3.7,3.7,0,0,0,820.94,628.44Z" transform="translate(-256.85 -38.1)"/><path class="cls-3" d="M820.25,888" transform="translate(-256.85 -38.1)"/><path class="cls-15" d="M615.14,874.48" transform="translate(-256.85 -38.1)"/><path class="cls-1" d="M379.66,730.73C325.72,773,319.51,866.82,358.38,897.79c28.06,22.36,73.64,7.21,99.2-1.29,29.51-9.81,87.78-29.17,96.05-78.9,7.06-42.41-25.77-85.74-65.55-102.37C449.53,699.12,407.13,709.21,379.66,730.73Z" transform="translate(-256.85 -38.1)"/><text x="-256.85" y="-38.1"/><line class="cls-2" x1="849.58" y1="262.07" x2="969.02" y2="262.07"/><line class="cls-2" x1="875.88" y1="299.34" x2="938.25" y2="299.34"/><line class="cls-2" x1="1020.68" y1="373.88" x2="947.04" y2="373.88"/><line class="cls-2" x1="855.58" y1="373.88" x2="896.18" y2="373.88"/><line class="cls-2" x1="1090.17" y1="373.88" x2="1068.1" y2="373.88"/><line class="cls-2" x1="1039.52" y1="424.7" x2="917.43" y2="424.7"/><line class="cls-2" x1="969.02" y1="476.22" x2="877.47" y2="478.29"/><line class="cls-2" x1="873.3" y1="522.97" x2="851.22" y2="522.97"/><text class="cls-16" transform="matrix(1.14, -0.13, 0.11, 0.99, 138.24, 127.99)">[]</text><text class="cls-17" transform="translate(94.02 794.97)">&lt;/&gt;</text><text x="-256.85" y="-38.1"/><text class="cls-18" transform="matrix(0.64, -1, 0.84, 0.54, 322.26, 477.25)">{</text><text class="cls-18" transform="matrix(-0.57, 1.04, 0.88, 0.48, 380.53, 373.88)">{</text></g></svg>